<?xml version="1.0" encoding="UTF-8"?>
<!DOCTYPE svg PUBLIC "-//W3C//DTD SVG 1.1//EN" "http://www.w3.org/Graphics/SVG/1.1/DTD/svg11.dtd">
<svg xmlns="http://www.w3.org/2000/svg" version="1.1" width="366px" height="313px"
     style="shape-rendering:geometricPrecision; text-rendering:geometricPrecision; image-rendering:optimizeQuality; fill-rule:evenodd; clip-rule:evenodd"
     xmlns:xlink="http://www.w3.org/1999/xlink">
    <g>
        <path style="opacity:0.959" fill="#4e8ac8"
              d="M 101.5,-0.5 C 109.167,-0.5 116.833,-0.5 124.5,-0.5C 124.5,4.5 124.5,9.5 124.5,14.5C 163.167,14.5 201.833,14.5 240.5,14.5C 240.5,9.5 240.5,4.5 240.5,-0.5C 247.5,-0.5 254.5,-0.5 261.5,-0.5C 261.5,11.8333 261.5,24.1667 261.5,36.5C 208.167,36.5 154.833,36.5 101.5,36.5C 101.5,24.1667 101.5,11.8333 101.5,-0.5 Z"/>
    </g>
    <g>
        <path style="opacity:0.944" fill="#4e8ac8"
              d="M 50.5,21.5 C 61.7681,18.3783 69.6014,22.045 74,32.5C 74.9872,47.1788 68.1539,53.6788 53.5,52C 45.7827,49.7386 42.116,44.572 42.5,36.5C 42.9357,33.8214 43.4357,31.1547 44,28.5C 46.0048,25.996 48.1715,23.6626 50.5,21.5 Z"/>
    </g>
    <g>
        <path style="opacity:0.947" fill="#4e8ac8"
              d="M 298.5,21.5 C 311.738,18.4394 319.738,23.4394 322.5,36.5C 319.199,51.2962 310.533,55.7962 296.5,50C 289.86,43.1286 288.694,35.2953 293,26.5C 294.73,24.5981 296.563,22.9314 298.5,21.5 Z"/>
    </g>
    <g>
        <path style="opacity:0.96" fill="#4e8ac8"
              d="M 173.5,46.5 C 179.167,46.5 184.833,46.5 190.5,46.5C 190.379,53.2616 192.379,59.2616 196.5,64.5C 198.385,65.6094 200.385,66.4427 202.5,67C 225.141,65.9268 247.808,65.5935 270.5,66C 288.818,69.3173 299.318,80.1507 302,98.5C 302.777,106.153 303.277,113.819 303.5,121.5C 294.833,121.5 286.167,121.5 277.5,121.5C 280.562,100.908 271.896,91.2413 251.5,92.5C 237.48,93.2354 223.48,94.2354 209.5,95.5C 203.366,94.9838 197.366,93.8171 191.5,92C 187.694,89.5274 184.527,86.3607 182,82.5C 179.64,86.4385 176.473,89.6052 172.5,92C 166.634,93.8171 160.634,94.9838 154.5,95.5C 140.686,94.2429 126.852,93.2429 113,92.5C 92.1028,90.9096 83.6028,100.576 87.5,121.5C 78.5822,121.817 69.7489,121.484 61,120.5C 60.037,108.128 61.7036,96.1277 66,84.5C 72.5334,74.4789 81.7001,68.3122 93.5,66C 116.524,65.6119 139.524,65.9453 162.5,67C 170.785,62.8307 174.451,55.9974 173.5,46.5 Z"/>
    </g>
    <g>
        <path style="opacity:0.964" fill="#4e8ac8"
              d="M -0.5,176.5 C -0.5,162.5 -0.5,148.5 -0.5,134.5C 3.16534,106.67 12.6653,81.0037 28,57.5C 29.8783,55.3025 32.0449,55.1358 34.5,57C 40.5194,61.6915 46.5194,66.3581 52.5,71C 22.7641,117.866 18.5974,167.032 40,218.5C 44.8657,225.904 48.8657,233.571 52,241.5C 45.0297,246.156 38.0297,250.823 31,255.5C 29.7387,255.241 28.7387,254.574 28,253.5C 12.6653,229.996 3.16534,204.33 -0.5,176.5 Z"/>
    </g>
    <g>
        <path style="opacity:0.965" fill="#4e8ac8"
              d="M 365.5,145.5 C 365.5,152.5 365.5,159.5 365.5,166.5C 363.559,182.288 360.392,197.955 356,213.5C 350.452,228.26 343.619,242.26 335.5,255.5C 326.433,252.308 318.766,247.141 312.5,240C 342.861,189.557 345.361,137.724 320,84.5C 317.667,81.1667 315.333,77.8333 313,74.5C 312.333,72.8333 312.333,71.1667 313,69.5C 319.226,63.9682 326.06,59.3015 333.5,55.5C 339.319,62.4554 344.153,70.1221 348,78.5C 358.02,99.8326 363.853,122.166 365.5,145.5 Z"/>
    </g>
    <g>
        <path style="opacity:0.96" fill="#4e8ac8"
              d="M 119.5,108.5 C 126.833,108.5 134.167,108.5 141.5,108.5C 146.663,125.147 151.83,141.814 157,158.5C 163.333,142.151 169.166,125.651 174.5,109C 179.751,108.196 184.918,108.363 190,109.5C 195.514,125.894 201.181,142.227 207,158.5C 212.71,142.275 218.043,125.942 223,109.5C 230.079,108.52 237.245,108.187 244.5,108.5C 234.91,139.44 225.41,170.44 216,201.5C 210.593,202.473 205.093,202.807 199.5,202.5C 194.178,184.7 188.345,167.034 182,149.5C 175.705,167.014 169.871,184.681 164.5,202.5C 159.167,202.5 153.833,202.5 148.5,202.5C 138.823,171.153 129.157,139.819 119.5,108.5 Z"/>
    </g>
    <g>
        <path style="opacity:0.943" fill="#4e8ac8"
              d="M 260.5,146.5 C 280.833,146.5 301.167,146.5 321.5,146.5C 321.5,153.167 321.5,159.833 321.5,166.5C 301.167,166.5 280.833,166.5 260.5,166.5C 260.5,159.833 260.5,153.167 260.5,146.5 Z"/>
    </g>
    <g>
        <path style="opacity:0.947" fill="#4e8ac8"
              d="M 43.5,146.5 C 63.5,146.5 83.5,146.5 103.5,146.5C 103.5,153.167 103.5,159.833 103.5,166.5C 83.5,166.5 63.5,166.5 43.5,166.5C 43.5,159.833 43.5,153.167 43.5,146.5 Z"/>
    </g>
    <g>
        <path style="opacity:0.958" fill="#4e8ac8"
              d="M 61.5,189.5 C 70.1667,189.5 78.8333,189.5 87.5,189.5C 83.1528,208.448 90.4861,218.448 109.5,219.5C 125.799,217.536 142.132,216.37 158.5,216C 168.583,216.123 176.416,220.289 182,228.5C 187.719,220.577 195.553,216.411 205.5,216C 222.205,216.318 238.872,217.485 255.5,219.5C 273.692,217.927 281.025,207.927 277.5,189.5C 286.167,189.5 294.833,189.5 303.5,189.5C 303.379,200.615 302.213,211.615 300,222.5C 294.144,235.182 284.311,242.682 270.5,245C 265.703,245.853 260.87,246.353 256,246.5C 240.463,245.497 224.963,244.163 209.5,242.5C 204.237,243.087 199.404,244.754 195,247.5C 192.171,252.812 190.671,258.479 190.5,264.5C 184.833,264.5 179.167,264.5 173.5,264.5C 174.26,250.933 167.927,243.599 154.5,242.5C 136.562,244.765 118.562,245.931 100.5,246C 86.2843,245.81 75.1176,239.977 67,228.5C 61.6134,215.947 59.7801,202.947 61.5,189.5 Z"/>
    </g>
    <g>
        <path style="opacity:0.945" fill="#4e8ac8"
              d="M 51.5,259.5 C 68.7312,257.229 75.8979,264.563 73,281.5C 66.2903,291.238 57.7903,293.072 47.5,287C 42.6198,280.888 41.4532,274.055 44,266.5C 46.3697,263.961 48.8697,261.628 51.5,259.5 Z"/>
    </g>
    <g>
        <path style="opacity:0.945" fill="#4e8ac8"
              d="M 298.5,259.5 C 312.03,256.418 320.03,261.585 322.5,275C 318.924,289.455 310.257,293.788 296.5,288C 289.86,281.129 288.694,273.295 293,264.5C 294.73,262.598 296.563,260.931 298.5,259.5 Z"/>
    </g>
    <g>
        <path style="opacity:0.927" fill="#4e8ac8"
              d="M 261.5,312.5 C 254.167,312.5 246.833,312.5 239.5,312.5C 239.5,307.167 239.5,301.833 239.5,296.5C 200.833,296.5 162.167,296.5 123.5,296.5C 123.5,301.833 123.5,307.167 123.5,312.5C 116.167,312.5 108.833,312.5 101.5,312.5C 101.5,299.5 101.5,286.5 101.5,273.5C 154.833,273.5 208.167,273.5 261.5,273.5C 261.5,286.5 261.5,299.5 261.5,312.5 Z"/>
    </g>
</svg>
